<svg xmlns="http://www.w3.org/2000/svg" xmlns:xlink="http://www.w3.org/1999/xlink" width="320" height="200" viewBox="0 0 320 200">
    <defs>
        <linearGradient id="b" x1="0%" x2="49.702%" y1="0%" y2="99.404%">
            <stop offset="0%" stop-color="#FFF" stop-opacity=".51"/>
            <stop offset="100%" stop-color="#4A90E2" stop-opacity=".8"/>
        </linearGradient>
        <rect id="a" width="320" height="188" rx="4"/>
    </defs>
    <g fill="none" fill-rule="evenodd">
        <g>
            <rect width="280" height="188" x="20" y="12" fill="#F3F3F3" rx="4"/>
            <rect width="300" height="188" x="10" y="6" fill="#E8E8E8" rx="4"/>
            <use fill="#FFF" xlink:href="#a"/>
            <use fill="url(#b)" xlink:href="#a"/>
            <rect width="319" height="187" x=".5" y=".5" stroke="#E8E8E8" rx="4"/>
        </g>
        <g stroke="#4A90E2" stroke-width="2" opacity=".6">
            <path d="M137.43 26.304L131.031 31H91.26v121H228V31h-85.875l-4.696-4.696z"/>
            <path d="M178.67 70.19L175.466 74H142v78h44V74h-3.06l-4.27-3.81zM192.834 70.332L189.437 74H186v78h42V74h-31.31l-3.856-3.668z"/>
            <path d="M186 132h42v20h-42zM129.931 90.336L125.351 94H91v58h51V94h-8.348l-3.72-3.664z"/>
            <path d="M115.37 70.812l-3.37-3.4V31H91v63h21V74.73l3.37-3.918z"/>
        </g>
        <text fill="#FFF" font-family="AvenirNextCyr-Bold, Avenir Next Cyr" font-size="120" font-weight="bold">
            <tspan x="119.24" y="137">2</tspan>
        </text>
    </g>
</svg>
