<svg xmlns="http://www.w3.org/2000/svg" xmlns:xlink="http://www.w3.org/1999/xlink" width="604" height="283" viewBox="0 0 604 283">
    <defs>
        <path id="a" d="M93 10h417v171H93z"/>
        <linearGradient id="b" x1="50%" x2="50%" y1="14.353%" y2="100%">
            <stop offset="0%" stop-color="#FFF"/>
            <stop offset="100%" stop-color="#FFF" stop-opacity="0"/>
        </linearGradient>
        <path id="e" d="M4 0h536a4 4 0 0 1 4 4v44a4 4 0 0 1-4 4H4a4 4 0 0 1-4-4V4a4 4 0 0 1 4-4z"/>
        <filter id="c" width="103.7%" height="138.5%" x="-1.8%" y="-11.5%" filterUnits="objectBoundingBox">
            <feGaussianBlur in="SourceGraphic"/>
        </filter>
        <filter id="d" width="106.2%" height="165.4%" x="-3.1%" y="-25%" filterUnits="objectBoundingBox">
            <feOffset dy="4" in="SourceAlpha" result="shadowOffsetOuter1"/>
            <feGaussianBlur in="shadowOffsetOuter1" result="shadowBlurOuter1" stdDeviation="5"/>
            <feColorMatrix in="shadowBlurOuter1" values="0 0 0 0 0 0 0 0 0 0 0 0 0 0 0 0 0 0 0.5 0"/>
        </filter>
    </defs>
    <g fill="none" fill-rule="evenodd">
        <text fill="#9B9B9B" font-family="GraphikLCG-Regular, Graphik LCG" font-size="12" transform="translate(-1)">
            <tspan x="0" y="178">Шаг 1</tspan>
        </text>
        <text fill="#9B9B9B" font-family="GraphikLCG-Regular, Graphik LCG" font-size="13" transform="translate(-1)">
            <tspan x="569.365" y="178">Шаг 2</tspan>
        </text>
        <g opacity=".8" transform="translate(-1)">
            <use fill="#5DFF80" fill-opacity=".535" xlink:href="#a"/>
            <path stroke="gray" stroke-width="12" d="M99 16h405v159H99z"/>
        </g>
        <path fill="url(#b)" d="M54 12h490v100H54z" transform="translate(-1)"/>
        <g filter="url(#c)" transform="translate(28 217)">
            <use fill="#000" filter="url(#d)" xlink:href="#e"/>
            <use fill="#4A4A4A" xlink:href="#e"/>
        </g>
        <path stroke="#979797" stroke-dasharray="2,1" d="M276.5 219.5v48"/>
        <g transform="translate(352 231)">
            <rect width="200" height="26" fill="#F2F2F2" rx="5"/>
            <text fill="#979797" font-family="AvenirNextCyr-Demi, Avenir Next Cyr" font-size="15" font-weight="500">
                <tspan x="12" y="18">Скандинавский #13</tspan>
            </text>
            <path fill="#979797" d="M189.774 5c-.853 0-1.632.483-2.006 1.246a12.24 12.24 0 0 1-1.698 2.66l-.267.309a1.45 1.45 0 0 1-2.117.079l-.824-.821a.525.525 0 0 0-.74-.001l-.001.001-1.29 1.283a.518.518 0 0 0-.001.736v.001l5.644 5.625a.525.525 0 0 0 .741 0l1.29-1.283a.518.518 0 0 0 .001-.736v-.001l-.826-.821a1.433 1.433 0 0 1 .078-2.104 15.774 15.774 0 0 1 3.045-1.988 2.214 2.214 0 0 0 .942-2.995A2.232 2.232 0 0 0 189.774 5m-13.527 9.805l3.533-3.51c.036.042.074.085.114.126l5.655 5.624c.041.041.082.08.127.115L182 20.815a.636.636 0 0 1-.896 0l-.627-.623a.348.348 0 0 1-.053-.429l1.026-1.695a.072.072 0 0 0-.1-.097l-1.64 1.069a.353.353 0 0 1-.442-.045l-1.589-1.58a.348.348 0 0 1-.058-.419l.522-.93a.072.072 0 0 0-.03-.098.073.073 0 0 0-.068 0l-.953.506a.353.353 0 0 1-.414-.062l-.432-.428a.827.827 0 0 1-.004-1.175l.004-.004"/>
        </g>
        <g transform="translate(83 230)">
            <rect width="180" height="26" fill="#F2F2F2" rx="8"/>
            <path fill="#979797" fill-rule="nonzero" d="M165 15.463l.76.886a1 1 0 0 1 .011 1.288l-.012.014a1.014 1.014 0 0 1-.258.215 1.002 1.002 0 0 1-1.272-.229l-5.988-6.986a1 1 0 1 1 1.518-1.302L165 15.463l5.24-6.114a1 1 0 0 1 1.52 1.302l-5.989 6.986z"/>
            <text fill="#979797" font-family="AvenirNextCyr-Demi, Avenir Next Cyr" font-size="15" font-weight="500">
                <tspan x="12" y="18">Кухня-гостиная</tspan>
            </text>
        </g>
        <text fill="#F2F2F2" font-family="AvenirNextCyr-Regular, Avenir Next Cyr" font-size="15" transform="translate(28 217)">
            <tspan x="20" y="32">Тип</tspan>
        </text>
        <text fill="#F2F2F2" font-family="AvenirNextCyr-Regular, Avenir Next Cyr" font-size="15" transform="translate(28 217)">
            <tspan x="262" y="32">Дизайн</tspan>
        </text>
        <path stroke="#E1E1E1" d="M18 184c20.793 11.389 41.46 20.389 62 27 17.883 6.195 38.423 11.394 62 16M584 184c-20.793 11.389-41.46 20.389-62 27-17.883 6.195-38.423 11.394-62 16"/>
        <path fill="#FFF" d="M83 0h429v15H83z"/>
    </g>
</svg>
