<svg xmlns="http://www.w3.org/2000/svg" xmlns:xlink="http://www.w3.org/1999/xlink" width="320" height="202" viewBox="0 0 320 202">
    <defs>
        <linearGradient id="b" x1="0%" x2="49.702%" y1="0%" y2="99.404%">
            <stop offset="0%" stop-color="#FFF" stop-opacity=".51"/>
            <stop offset="100%" stop-color="#4A90E2" stop-opacity=".8"/>
        </linearGradient>
        <rect id="a" width="320" height="188" rx="4"/>
    </defs>
    <g fill="none" fill-rule="evenodd">
        <g>
            <rect width="280" height="188" x="20" y="14" fill="#F3F3F3" rx="4"/>
            <rect width="300" height="188" x="10" y="6" fill="#E8E8E8" rx="4"/>
            <use fill="#FFF" xlink:href="#a"/>
            <use fill="url(#b)" xlink:href="#a"/>
            <rect width="319" height="187" x=".5" y=".5" stroke="#E8E8E8" rx="4"/>
        </g>
        <g stroke="#4A90E2" stroke-width="2" opacity=".6">
            <path d="M143.57 26.304L149.969 31h99.772v121h-94.647l-.097-22H71V31h67.875l4.696-4.696z"/>
            <path d="M162.33 60.19l3.204 3.81H199v88h-44V64h3.06l4.27-3.81zM148.166 60.332L151.563 64H155v66h-42V64h31.31l3.856-3.668zM155 130H71v22h84z"/>
            <path d="M106.166 60.423l3.397 3.668H113v66H71v-66h31.31l3.856-3.668zM211.069 90.336l4.58 3.664H250v58h-51V94h8.348l3.72-3.664z"/>
            <path d="M225.63 70.812l3.37-3.4V31h21v63h-21V74.73l-3.37-3.918z"/>
        </g>
        <text fill="#FFF" font-family="AvenirNextCyr-Bold, Avenir Next Cyr" font-size="120" font-weight="bold">
            <tspan x="121.24" y="137">3</tspan>
        </text>
    </g>
</svg>
