<svg xmlns="http://www.w3.org/2000/svg" xmlns:xlink="http://www.w3.org/1999/xlink" width="320" height="200" viewBox="0 0 320 200">
    <defs>
        <linearGradient id="b" x1="0%" x2="49.702%" y1="0%" y2="99.404%">
            <stop offset="0%" stop-color="#FFF" stop-opacity=".51"/>
            <stop offset="100%" stop-color="#4A90E2" stop-opacity=".8"/>
        </linearGradient>
        <rect id="a" width="320" height="188" rx="4"/>
    </defs>
    <g fill="none" fill-rule="evenodd">
        <g>
            <rect width="280" height="188" x="20" y="12" fill="#F3F3F3" rx="4"/>
            <rect width="300" height="188" x="10" y="6" fill="#E8E8E8" rx="4"/>
            <use fill="#FFF" xlink:href="#a"/>
            <use fill="url(#b)" xlink:href="#a"/>
            <rect width="319" height="187" x=".5" y=".5" stroke="#E8E8E8" rx="4"/>
        </g>
        <g stroke="#4A90E2" stroke-width="2" opacity=".599">
            <path d="M144.124 117.66l2.66-2.66h8.213l.098 37h94.645V31H71v84h70.072l3.052 2.66z"/>
            <path d="M183.719 69.155L186 72.707V76h64V31h-64v35.873l-2.281 2.282zM137.832 92.61L135 95.64V115H71V77h64v12.965l2.832 2.644z"/>
            <path d="M149.512 79.558L152.069 77H159V31H71v46h75.354l3.158 2.558zM173.322 65.056L175.618 63H186V31h-27v32h11.309l3.013 2.056zM171.083 127.365L167.315 130H155v22h31v-22h-12.282l-2.635-2.635zM186 114h64v38h-64zM184.038 101.262l1.962 3.475V114h64V76h-64v23.3l-1.962 1.962z"/>
        </g>
        <text fill="#FFF" font-family="AvenirNextCyr-Bold, Avenir Next Cyr" font-size="120" font-weight="bold">
            <tspan x="81.28" y="137">4+</tspan>
        </text>
    </g>
</svg>
