<svg xmlns="http://www.w3.org/2000/svg" xmlns:xlink="http://www.w3.org/1999/xlink" width="320" height="200" viewBox="0 0 320 200">
    <defs>
        <linearGradient id="b" x1="0%" x2="49.702%" y1="0%" y2="99.404%">
            <stop offset="0%" stop-color="#FFF" stop-opacity=".51"/>
            <stop offset="100%" stop-color="#4A90E2" stop-opacity=".8"/>
        </linearGradient>
        <rect id="a" width="320" height="188" rx="4"/>
        <rect id="c" width="320" height="188" rx="4"/>
    </defs>
    <g fill="none" fill-rule="evenodd">
        <g>
            <rect width="280" height="188" x="20" y="12" fill="#F3F3F3" rx="4"/>
            <rect width="300" height="188" x="10" y="6" fill="#E8E8E8" rx="4"/>
            <use fill="#FFF" xlink:href="#a"/>
            <use fill="url(#b)" xlink:href="#a"/>
            <rect width="319" height="187" x=".5" y=".5" stroke="#E8E8E8" rx="4"/>
            <g>
                <rect width="280" height="188" x="20" y="12" fill="#F3F3F3" rx="4"/>
                <rect width="300" height="188" x="10" y="6" fill="#E8E8E8" rx="4"/>
                <use fill="#FFF" xlink:href="#c"/>
                <use fill="url(#b)" xlink:href="#c"/>
                <rect width="319" height="187" x=".5" y=".5" stroke="#E8E8E8" rx="4"/>
            </g>
            <g stroke="#4A90E2" stroke-width="2" opacity=".6">
                <path d="M88.267 100.954L95 109.658V152h137V31H95v61.345l-6.733 8.609z"/>
                <path d="M120.802 87.58l6.514-6.564H232V31H95v50.016h19.309l6.493 6.563zM232 114h19v38h-19zM134.663 112.48L129.43 118H95v34h70v-34h-25.45l-4.887-5.52z"/>
                <path d="M160.6 106.149l71.4 44.059V81h-66.396v20.134l-5.004 5.015z"/>
            </g>
        </g>
        <text fill="#FFF" font-family="AvenirNextCyr-Bold, Avenir Next Cyr" font-size="120" font-weight="bold">
            <tspan x="119.24" y="137">1</tspan>
        </text>
    </g>
</svg>
