<svg xmlns="http://www.w3.org/2000/svg" width="17" height="17" viewBox="0 0 17 17">
    <g fill="none" fill-rule="evenodd" opacity=".504">
        <circle cx="8.5" cy="8.5" r="8.5" fill="#4A4A4A"/>
        <path fill="#FFF" d="M8.362 10.996c-.486 0-.9-.378-.9-.864v-.216c0-.756.324-1.296 1.386-2.286 1.062-.954 1.296-1.314 1.296-1.944 0-.828-.63-1.44-1.44-1.44-.666 0-1.206.36-1.548 1.062-.216.378-.468.54-.81.54a.845.845 0 0 1-.846-.846c0-.216.054-.378.162-.576C6.22 3.202 7.336 2.5 8.776 2.5c1.89 0 3.33 1.278 3.33 2.988 0 .954-.45 1.71-1.584 2.718-.972.864-1.26 1.278-1.26 1.8l-.018.18c-.018.468-.396.81-.882.81zm.054 3.78c-.774 0-1.386-.594-1.386-1.35 0-.756.612-1.368 1.386-1.368.756 0 1.35.612 1.35 1.368 0 .756-.594 1.35-1.35 1.35z"/>
    </g>
</svg>
