<?xml version="1.0" encoding="utf-8"?><svg xmlns="http://www.w3.org/2000/svg" xmlns:xlink="http://www.w3.org/1999/xlink"><symbol viewBox="0 0 36 10" id="add-dot" xmlns="http://www.w3.org/2000/svg"><g fill-rule="evenodd"><path fill-rule="nonzero" d="M10.252 3H2.983a2 2 0 1 0 0 4h7.269A8.014 8.014 0 0 1 10 5c0-.69.088-1.36.252-2zm15.496 0h7.328a2 2 0 1 1 0 4h-7.328a8.047 8.047 0 0 0 0-4z"/><circle cx="18" cy="5" r="5"/></g></symbol><symbol viewBox="0 0 22 18" id="alarm" xmlns="http://www.w3.org/2000/svg"><path fill="#FF5D71" d="M10.128.51a1 1 0 0 1 1.744 0l9 16A1 1 0 0 1 20 18H2a1 1 0 0 1-.872-1.49l9-16zM11 15a1 1 0 1 0 0-2 1 1 0 0 0 0 2zm-1-8v3a1 1 0 0 0 2 0V7a1 1 0 0 0-2 0z"/></symbol><symbol viewBox="0 0 95 44" id="back-btn" xmlns="http://www.w3.org/2000/svg"><g fill="none" fill-rule="evenodd"><path fill="#EAEAEA" d="M18.657 1.478C19.399.662 20.895 0 22.007 0h68.987A4.005 4.005 0 0 1 95 4.002v35.996A4.007 4.007 0 0 1 90.994 44H22.006c-1.108 0-2.605-.658-3.35-1.478L2.698 24.967c-1.49-1.639-1.491-4.294 0-5.934l15.96-17.555z"/><text fill="#4A4A4A" font-family="AvenirNextCyr-Medium, Avenir Next Cyr" font-size="12" font-weight="400"><tspan x="27" y="18">Вернуться</tspan> <tspan x="27" y="33">на сайт</tspan></text></g></symbol><symbol viewBox="0 0 28 24" id="balcony-center" xmlns="http://www.w3.org/2000/svg"><g fill="none" fill-rule="evenodd" stroke="#4A4A4A" stroke-width="2"><path fill="#E9ECFF" stroke-linejoin="round" d="M1 1h26v18h-9v4h-8v-4H1z"/><path d="M10 .5v19m8-19v19"/></g></symbol><symbol viewBox="0 0 28 24" id="balcony-left" xmlns="http://www.w3.org/2000/svg"><g fill="none" fill-rule="evenodd" stroke="#4A4A4A" stroke-width="2"><path fill="#E9ECFF" stroke-linejoin="round" d="M27 1H1v22h9v-4h17z"/><path d="M10 .5v19"/></g></symbol><symbol viewBox="0 0 28 24" id="balcony-right" xmlns="http://www.w3.org/2000/svg"><g fill="none" fill-rule="evenodd" stroke="#4A4A4A" stroke-width="2"><path fill="#E9ECFF" stroke-linejoin="round" d="M1 1h26v22h-9v-4H1z"/><path d="M18 .5v19"/></g></symbol><symbol viewBox="0 0 24 24" id="big-brush" xmlns="http://www.w3.org/2000/svg"><path fill="#F2F2F2" fill-rule="evenodd" d="M20.66 0a3.35 3.35 0 0 0-3.008 1.869 18.361 18.361 0 0 1-2.547 3.99l-.4.463a2.176 2.176 0 0 1-3.175.118l-1.238-1.23a.787.787 0 0 0-1.109-.002l-.002.001-1.935 1.926a.778.778 0 0 0-.001 1.103l.001.002 8.466 8.437a.788.788 0 0 0 1.11 0l1.936-1.925a.778.778 0 0 0 .001-1.104l-.001-.001-1.238-1.231a2.15 2.15 0 0 1 .117-3.157 23.66 23.66 0 0 1 4.568-2.981 3.32 3.32 0 0 0 1.413-4.492A3.348 3.348 0 0 0 20.66 0M.37 14.708l5.3-5.266c.055.064.111.128.17.19l8.483 8.436c.062.062.124.118.19.172l-5.512 5.483a.954.954 0 0 1-1.344 0l-.94-.935a.522.522 0 0 1-.08-.643l1.54-2.543a.108.108 0 0 0-.151-.145l-2.46 1.602a.53.53 0 0 1-.663-.066l-2.383-2.37a.523.523 0 0 1-.086-.629l.781-1.396a.108.108 0 0 0-.043-.147.11.11 0 0 0-.103 0l-1.43.76a.53.53 0 0 1-.62-.093l-.65-.643a1.241 1.241 0 0 1-.005-1.761l.006-.006"/></symbol><symbol viewBox="0 0 16 16" id="brush" xmlns="http://www.w3.org/2000/svg"><path fill="#979797" fill-rule="evenodd" d="M13.774 0c-.853 0-1.632.483-2.006 1.246a12.24 12.24 0 0 1-1.698 2.66l-.267.309a1.45 1.45 0 0 1-2.117.079l-.824-.821a.525.525 0 0 0-.74-.001l-.001.001-1.29 1.283a.518.518 0 0 0-.001.736v.001l5.644 5.625a.525.525 0 0 0 .741 0l1.29-1.283a.518.518 0 0 0 .001-.736v-.001l-.826-.821a1.433 1.433 0 0 1 .078-2.104 15.774 15.774 0 0 1 3.045-1.988 2.214 2.214 0 0 0 .942-2.995A2.232 2.232 0 0 0 13.774 0M.247 9.805l3.533-3.51c.036.042.074.085.114.126l5.655 5.624c.041.041.082.08.127.115L6 15.815a.636.636 0 0 1-.896 0l-.627-.623a.348.348 0 0 1-.053-.429l1.026-1.695a.072.072 0 0 0-.1-.097L3.71 14.04a.353.353 0 0 1-.442-.045l-1.589-1.58a.348.348 0 0 1-.058-.419l.522-.93a.072.072 0 0 0-.03-.098.073.073 0 0 0-.068 0l-.953.506a.353.353 0 0 1-.414-.062l-.432-.428a.827.827 0 0 1-.004-1.175l.004-.004"/></symbol><symbol viewBox="0 0 7 16" id="chain" xmlns="http://www.w3.org/2000/svg"><g fill="#979797"><path d="M3.5 9c-.755 0-1.135-.203-1.34-.53A1.04 1.04 0 0 1 2 8V3c0-.08.042-.28.16-.47.205-.327.585-.53 1.34-.53.755 0 1.135.203 1.34.53.118.19.16.39.16.47v1a1 1 0 1 0 2 0V3c0-.42-.114-.97-.465-1.53C5.96.547 4.933 0 3.5 0S1.041.547.465 1.47C.115 2.03 0 2.58 0 3v5c0 .42.114.97.465 1.53C1.04 10.453 2.067 11 3.5 11a1 1 0 0 0 0-2z"/><path d="M3.5 7c.755 0 1.135.203 1.34.53.118.19.16.39.16.47v5c0 .08-.042.28-.16.47-.205.327-.585.53-1.34.53-.755 0-1.135-.203-1.34-.53A1.04 1.04 0 0 1 2 13v-1a1 1 0 0 0-2 0v1c0 .42.114.97.465 1.53C1.04 15.453 2.067 16 3.5 16s2.459-.547 3.035-1.47C6.885 13.97 7 13.42 7 13V8c0-.42-.114-.97-.465-1.53C5.96 5.547 4.933 5 3.5 5a1 1 0 1 0 0 2z"/></g></symbol><symbol viewBox="0 0 12 12" id="close" xmlns="http://www.w3.org/2000/svg"><path fill="#6476FC" d="M6.076 4.662L2.718 1.303A1.25 1.25 0 1 0 .95 3.071L4.309 6.43 1.127 9.612a1.25 1.25 0 1 0 1.767 1.768l3.182-3.182 3.359 3.358a1.25 1.25 0 1 0 1.768-1.767l-3.359-3.36 3.536-3.535a1.25 1.25 0 1 0-1.768-1.767L6.076 4.662z"/></symbol><symbol viewBox="0 0 18 18" id="dimentions" xmlns="http://www.w3.org/2000/svg"><path fill="#979797" fill-rule="evenodd" d="M3.45 3.959h1.522v7.988l-2.713 2.712-1.076-1.075L0 18l4.416-1.183L3.34 15.74l2.713-2.712h7.988v1.522L18 12.263l-3.96-2.286v1.522H6.5V3.96h1.522L5.736 0z"/></symbol><symbol viewBox="0 0 28 24" id="double-door" xmlns="http://www.w3.org/2000/svg"><g fill="none" fill-rule="evenodd"><g transform="translate(14 1)"><path fill="#E9ECFF" stroke="#4A4A4A" stroke-linejoin="round" stroke-width="2" d="M0 0h13v22H0z"/><rect width="1.846" height="5.538" x="3" y="8" fill="#4A4A4A" rx=".923"/></g><g transform="matrix(-1 0 0 1 14 1)"><path fill="#E9ECFF" stroke="#4A4A4A" stroke-linejoin="round" stroke-width="2" d="M0 0h13v22H0z"/><rect width="1.846" height="5.538" x="3" y="8" fill="#4A4A4A" rx=".923"/></g></g></symbol><symbol viewBox="0 0 18 20" id="double-window" xmlns="http://www.w3.org/2000/svg"><g fill="none" fill-rule="evenodd" stroke="#4A4A4A"><path fill="#E9ECFF" stroke-linejoin="round" stroke-width="2" d="M0 1h18v18H0z"/><path d="M9 .5v19"/></g></symbol><symbol viewBox="0 0 14 9" id="down" xmlns="http://www.w3.org/2000/svg"><path fill="#979797" d="M7 6.463L1.76.35A1 1 0 1 0 .24 1.651l5.99 6.986a1 1 0 0 0 1.542 0l5.988-6.986A1 1 0 1 0 12.241.349L7 6.463z"/></symbol><symbol viewBox="0 0 17 24" id="enter-door" xmlns="http://www.w3.org/2000/svg"><g fill="none" fill-rule="evenodd" transform="translate(1 1)"><path fill="#E9ECFF" stroke="#4A4A4A" stroke-linejoin="round" stroke-width="2" d="M0 0h15v22H0z"/><circle cx="7.5" cy="5.5" r="1.5" fill="#4A4A4A"/><rect width="1.846" height="5.538" x="3" y="8" fill="#4A4A4A" rx=".923"/></g></symbol><symbol viewBox="0 0 24 24" id="horizontal" xmlns="http://www.w3.org/2000/svg"><g fill-rule="evenodd"><path d="M0 2.005C0 .898.897 0 2.005 0h19.99C23.102 0 24 .897 24 2.005v19.99A2.005 2.005 0 0 1 21.995 24H2.005A2.005 2.005 0 0 1 0 21.995V2.005zm12-.159v20.308h8.148a2.006 2.006 0 0 0 2.006-2.003V3.85a2.006 2.006 0 0 0-2.006-2.003H12zm-3.692 8.3v3.709c0 .498.413.914.923.914.513 0 .923-.41.923-.914v-3.71a.923.923 0 0 0-.923-.914.917.917 0 0 0-.923.914z"/><rect width="1.846" height="5.538" x="13.846" y="9.231" rx=".923"/></g></symbol><symbol viewBox="0 0 29 18" id="ic-2-d" xmlns="http://www.w3.org/2000/svg"><path fill="#F2F2F2" fill-rule="evenodd" d="M.12 17.232h10.92v-2.064H2.592c.096-3.864 8.184-4.728 8.184-10.296C10.776 1.944 8.544 0 5.448 0 2.952 0 1.032 1.44.072 3.216l1.752 1.176c.72-1.224 2.016-2.16 3.432-2.16 1.8 0 3.072 1.152 3.072 2.808C8.328 9.024 0 9.912 0 15.936c0 .408.048.84.12 1.296zm14.544 0V.288h5.64c5.16 0 8.568 3.096 8.568 8.448 0 5.376-3.408 8.496-8.568 8.496h-5.64zm2.376-2.064h3.096c3.792 0 6.288-2.232 6.288-6.432 0-4.152-2.52-6.384-6.288-6.384H17.04v12.816z"/></symbol><symbol viewBox="0 0 29 18" id="ic-3-d" xmlns="http://www.w3.org/2000/svg"><path fill="#F2F2F2" fill-rule="evenodd" d="M0 14.928c1.44 1.488 3.504 2.304 5.496 2.304 3.48 0 5.76-2.544 5.76-5.424 0-3.312-2.736-4.752-4.968-4.968l4.608-5.328V0H.768v2.064h5.736c.936 0 1.44-.072 1.44-.072v.048s-.528.432-1.056 1.104L3.192 7.488l.552 1.272h1.152c2.112 0 3.96 1.032 3.96 3.12 0 1.824-1.584 3.096-3.456 3.096-1.632 0-3.192-.864-4.104-1.848L0 14.928zm14.784 2.016V0h5.64c5.16 0 8.568 3.096 8.568 8.448 0 5.376-3.408 8.496-8.568 8.496h-5.64zm2.376-2.064h3.096c3.792 0 6.288-2.232 6.288-6.432 0-4.152-2.52-6.384-6.288-6.384H17.16V14.88z"/></symbol><symbol viewBox="0 0 4 16" id="ic-angle-control" xmlns="http://www.w3.org/2000/svg"><rect width="4" height="15" y=".5" fill="#4A4A4A" fill-rule="evenodd" rx="2"/></symbol><symbol viewBox="0 0 4 5" id="ic-angle-degree" xmlns="http://www.w3.org/2000/svg"><path fill="#D0D0D0" d="M2 3.5a1 1 0 1 0 0-2 1 1 0 0 0 0 2zm0 1a2 2 0 1 1 0-4 2 2 0 0 1 0 4z"/></symbol><symbol viewBox="0 0 122 16" id="ic-angle-triangle" xmlns="http://www.w3.org/2000/svg"><path fill="#D0D0D0" fill-rule="evenodd" d="M2.056 7.696c-2.753.174-2.757.455 0 .628l113.953 7.18c1.103.07 2.603-.524 3.313-1.38 0 0 2.668-2.405 2.668-6.181 0-3.776-2.646-6.063-2.646-6.063-.739-.823-2.224-1.434-3.335-1.364L2.056 7.696z"/></symbol><symbol viewBox="0 0 168 110" id="ic-arrows" xmlns="http://www.w3.org/2000/svg"><path fill="#FFF" fill-rule="evenodd" d="M64 0h40a6 6 0 0 1 6 6v40a6 6 0 0 1-6 6H64a6 6 0 0 1-6-6V6a6 6 0 0 1 6-6zm20 18l-6 12h12l-6-12zm-20 92a6 6 0 0 1-6-6V64a6 6 0 0 1 6-6h40a6 6 0 0 1 6 6v40a6 6 0 0 1-6 6H64zm20-18l6-12H78l6 12zM0 64a6 6 0 0 1 6-6h40a6 6 0 0 1 6 6v40a6 6 0 0 1-6 6H6a6 6 0 0 1-6-6V64zm18 20l12 6V78l-12 6zm150-20v40a6 6 0 0 1-6 6h-40a6 6 0 0 1-6-6V64a6 6 0 0 1 6-6h40a6 6 0 0 1 6 6zm-18 20l-12-6v12l12-6z"/></symbol><symbol viewBox="0 0 33 24" id="ic-bird" xmlns="http://www.w3.org/2000/svg"><path fill="#4A4A4A" fill-rule="evenodd" d="M5.402.24l4.342 4.446c.396.406.39 1.046 0 1.445l-4.342 4.445c-.396.405-.706.272-.706-.282V.522c0-.557.316-.68.706-.282zm-2.1.274V2.39a.993.993 0 0 1-.993.996H.517c-.545 0-.683-.318-.3-.71L2.609.227c.384-.393.693-.263.693.287zM13.52 19.511l2.747-2.487c.403-.365.734-.218.734.332v6.138c0 .548-.312.678-.696.284l-2.823-2.89a.953.953 0 0 1 .038-1.377zM19.327.441h13.186c.558 0 .652.29.228.645L12.334 18.221a1.192 1.192 0 0 1-1.516-.027L5.789 13.68a.911.911 0 0 1-.015-1.366L17.598 1.135c.405-.383 1.18-.693 1.73-.693z"/></symbol><symbol viewBox="0 0 18 24" id="ic-camera-level" xmlns="http://www.w3.org/2000/svg"><g fill="none" fill-rule="evenodd"><path fill="#979797" d="M8.506 19.444V4.556H5.514c-.548 0-.68-.31-.278-.712L8.789.302a1.004 1.004 0 0 1 1.427 0l3.552 3.542c.394.393.26.712-.278.712h-2.992v14.888h2.992c.538 0 .672.319.278.712l-3.552 3.542c-.402.4-1.033.393-1.427 0l-3.553-3.542c-.402-.401-.27-.712.278-.712h2.992z"/><g fill="#4A4A4A" transform="translate(0 7)"><rect width="13" height="10" x="4.667" rx="1.333"/><path d="M1.447 1.724l2 1A1 1 0 0 1 4 3.618v2.764a1 1 0 0 1-.553.894l-2 1A1 1 0 0 1 0 7.382V2.618a1 1 0 0 1 1.447-.894z"/></g></g></symbol><symbol viewBox="0 0 27 15" id="ic-camera-level-control" xmlns="http://www.w3.org/2000/svg"><path fill="#4A4A4A" fill-rule="evenodd" d="M7 1.992C7 .892 7.898 0 8.99 0h16.02C26.108 0 27 .893 27 1.992v11.016c0 1.1-.898 1.992-1.99 1.992H8.99A1.992 1.992 0 0 1 7 13.008V1.992zm-5.545.121l4 2.044a1 1 0 0 1 .545.89v4.906a1 1 0 0 1-.545.89l-4 2.043A1 1 0 0 1 0 11.996V3.004a1 1 0 0 1 1.455-.89z"/></symbol><symbol viewBox="0 0 20 20" id="ic-center" xmlns="http://www.w3.org/2000/svg"><path d="M19.71.293c.18.18.29.43.29.704v6.006c0 .544-.448.997-1 .997-.556 0-1-.446-1-.997V2h-5.003C12.453 2 12 1.552 12 1c0-.556.446-1 .997-1h6.006a1 1 0 0 1 .702.292zM.29 19.707a.993.993 0 0 1-.29-.704v-6.006C0 12.453.448 12 1 12c.556 0 1 .446 1 .997V18h5.003c.544 0 .997.448.997 1 0 .556-.446 1-.997 1H.997a.994.994 0 0 1-.702-.292zm19.42 0c.18-.18.29-.43.29-.704v-6.006c0-.544-.448-.997-1-.997-.556 0-1 .446-1 .997V18h-5.003c-.544 0-.997.448-.997 1 0 .556.446 1 .997 1h6.006a1 1 0 0 0 .702-.292zM.29.293C.11.473 0 .723 0 .997v6.006C0 7.547.448 8 1 8c.556 0 1-.446 1-.997V2h5.003C7.547 2 8 1.552 8 1c0-.556-.446-1-.997-1H.997a.994.994 0 0 0-.702.292z" fill="#4A4A4A" fill-rule="evenodd"/></symbol><symbol viewBox="0 0 20 20" id="ic-clone" xmlns="http://www.w3.org/2000/svg"><g fill="#4A4A4A"><path d="M14.667 2L18 4.5V15h-8V2h4.667zM9 0a1 1 0 0 0-1 1v4l3 2v10h8a1 1 0 0 0 1-1V4a1 1 0 0 0-.4-.8l-4-3A1 1 0 0 0 15 0H9z"/><path d="M6.667 5L10 7.5V18H2V5h4.667zM1 3a1 1 0 0 0-1 1v15a1 1 0 0 0 1 1h10a1 1 0 0 0 1-1V7a1 1 0 0 0-.4-.8l-4-3A1 1 0 0 0 7 3H1z"/></g></symbol><symbol viewBox="0 0 22 10" id="ic-cm" xmlns="http://www.w3.org/2000/svg"><path fill="#4A4A4A" fill-rule="evenodd" d="M0 4.77c0 2.736 1.998 4.77 4.878 4.77 1.422 0 2.808-.576 3.636-1.458l-.702-1.278c-.702.738-1.8 1.224-2.808 1.224-1.89 0-3.222-1.422-3.222-3.276 0-1.854 1.332-3.24 3.168-3.24a3.69 3.69 0 0 1 2.52 1.044l.828-1.224C7.434.414 6.084 0 4.878 0 2.016 0 0 2.07 0 4.77zm10.026 4.554h1.692l.396-5.418c.036-.54-.018-1.566-.018-1.566h.036s.288.684.576 1.35l2.16 4.536h1.494l2.16-4.554c.342-.702.576-1.332.576-1.332h.036s-.036 1.026-.018 1.566l.396 5.418h1.692L20.412.216h-1.908l-2.376 5.148c-.234.558-.504 1.224-.504 1.224h-.036s-.252-.684-.504-1.224L12.762.216h-1.944l-.792 9.108z"/></symbol><symbol viewBox="0 0 18 22" id="ic-door" xmlns="http://www.w3.org/2000/svg"><g fill="#4A4A4A"><path d="M2 2h14v15H2V2zM1 0a1 1 0 0 0-1 1v17a1 1 0 0 0 1 1h16a1 1 0 0 0 1-1V1a1 1 0 0 0-1-1H1z"/><path d="M1.314.05l11 3.637a1 1 0 0 1 .686.95V21a1 1 0 0 1-1.314.95l-11-3.637a1 1 0 0 1-.686-.95V1A1 1 0 0 1 1.314.05zM9 10v4a1 1 0 0 0 2 0v-4a1 1 0 0 0-2 0z"/></g></symbol><symbol viewBox="0 0 18 18" id="ic-doorway" xmlns="http://www.w3.org/2000/svg"><path fill="#4A4A4A" d="M16 2v14h-2V5a1 1 0 0 0-1-1H5a1 1 0 0 0-1 1v11H2V2h14zM6 6h6v11a1 1 0 0 0 1 1h4a1 1 0 0 0 1-1V1a1 1 0 0 0-1-1H1a1 1 0 0 0-1 1v16a1 1 0 0 0 1 1h4a1 1 0 0 0 1-1V6z"/></symbol><symbol viewBox="0 0 24 24" id="ic-exit" xmlns="http://www.w3.org/2000/svg"><path fill="#F2F2F2" d="M13.414 12L23.707 1.707A1 1 0 1 0 22.293.293L12 10.586 1.707.293A1 1 0 1 0 .293 1.707L10.586 12 .293 22.293a1 1 0 0 0 1.414 1.414L12 13.414l10.293 10.293a1 1 0 0 0 1.414-1.414L13.414 12z"/></symbol><symbol viewBox="0 0 26 17" id="ic-eye" xmlns="http://www.w3.org/2000/svg"><path fill="#4A4A4A" fill-rule="evenodd" d="M12.99 15.107c-2.261 0-4.361-.597-6.299-1.792-1.938-1.195-3.55-2.801-4.835-4.817C3.326 6.176 5.166 4.44 7.38 3.29a6.533 6.533 0 0 0-.885 3.32c0 1.819.636 3.375 1.907 4.668 1.27 1.294 2.8 1.94 4.589 1.94 1.788 0 3.317-.647 4.588-1.94s1.907-2.85 1.907-4.669c0-1.19-.295-2.297-.885-3.32 2.214 1.151 4.055 2.888 5.524 5.209-1.285 2.016-2.897 3.622-4.835 4.817a11.786 11.786 0 0 1-6.3 1.792zm0-12.983c.194 0 .358.07.493.207a.69.69 0 0 1 .203.501.69.69 0 0 1-.202.502.665.665 0 0 1-.493.207c-.831 0-1.542.3-2.132.9-.59.6-.884 1.322-.884 2.168a.69.69 0 0 1-.203.502.665.665 0 0 1-.493.206.666.666 0 0 1-.493-.206.689.689 0 0 1-.203-.502c0-1.23.432-2.284 1.297-3.164.865-.88 1.902-1.32 3.11-1.32zm7.242-.073C17.946.684 15.532 0 12.991 0c-2.543 0-4.956.683-7.242 2.05C3.463 3.419 1.643 5.228.289 7.48A2.07 2.07 0 0 0 0 8.498c0 .334.097.673.29 1.017 1.353 2.253 3.173 4.063 5.459 5.43 2.286 1.367 4.7 2.05 7.242 2.05s4.955-.681 7.241-2.043a15.512 15.512 0 0 0 5.46-5.437c.192-.344.289-.683.289-1.017a2.07 2.07 0 0 0-.29-1.018c-1.353-2.253-3.173-4.062-5.459-5.43z"/></symbol><symbol viewBox="0 0 4 120" id="ic-level" xmlns="http://www.w3.org/2000/svg"><rect width="4" height="120" fill="#D0D0D0" fill-rule="evenodd" rx="2"/></symbol><symbol viewBox="0 0 20 20" id="ic-line" xmlns="http://www.w3.org/2000/svg"><g fill="#4A4A4A"><path d="M16 6a2 2 0 1 0 0-4 2 2 0 0 0 0 4zm0 2a4 4 0 1 1 0-8 4 4 0 0 1 0 8zM4 18a2 2 0 1 0 0-4 2 2 0 0 0 0 4zm0 2a4 4 0 1 1 0-8 4 4 0 0 1 0 8z"/><path d="M6.707 14.707l8.062-8.062-1.414-1.414-8.062 8.062z"/></g></symbol><symbol viewBox="0 0 12 10" id="ic-m" xmlns="http://www.w3.org/2000/svg"><path fill="#4A4A4A" fill-rule="evenodd" d="M0 9.108h1.692l.396-5.418c.036-.54-.018-1.566-.018-1.566h.036s.288.684.576 1.35l2.16 4.536h1.494l2.16-4.554c.342-.702.576-1.332.576-1.332h.036S9.072 3.15 9.09 3.69l.396 5.418h1.692L10.386 0H8.478L6.102 5.148c-.234.558-.504 1.224-.504 1.224h-.036s-.252-.684-.504-1.224L2.736 0H.792L0 9.108z"/></symbol><symbol viewBox="0 0 12 38" id="ic-man" xmlns="http://www.w3.org/2000/svg"><path d="M9.454 8.462l-.9-.04h-5.25l-.9.04c-1.426.078-2.475 1.371-2.4 2.82l.487 8.62c.075 1.096.938 1.997 2.025 1.997h.15l.863 13.398c.074 1.254.75 1.959 1.574 1.959h1.65c.826 0 1.538-.666 1.576-1.96L9.19 21.9h.15c1.05 0 1.95-.862 2.025-1.998l.487-8.618c.076-1.49-.974-2.743-2.4-2.821M5.929 0C7.896 0 9.49 1.666 9.49 3.722c0 2.055-1.595 3.721-3.562 3.721-1.968 0-3.563-1.666-3.563-3.721C2.366 1.666 3.961 0 5.93 0" fill="#4A4A4A" fill-rule="evenodd"/></symbol><symbol viewBox="0 0 18 2" id="ic-minus" xmlns="http://www.w3.org/2000/svg"><rect width="2" height="18" x="8" y="-8" fill="#4A4A4A" fill-rule="evenodd" rx="1" transform="rotate(90 9 1)"/></symbol><symbol viewBox="0 0 25 10" id="ic-mm" xmlns="http://www.w3.org/2000/svg"><path fill="#4A4A4A" fill-rule="evenodd" d="M0 9.108h1.692l.396-5.418c.036-.54-.018-1.566-.018-1.566h.036s.288.684.576 1.35l2.16 4.536h1.494l2.16-4.554c.342-.702.576-1.332.576-1.332h.036S9.072 3.15 9.09 3.69l.396 5.418h1.692L10.386 0H8.478L6.102 5.148c-.234.558-.504 1.224-.504 1.224h-.036s-.252-.684-.504-1.224L2.736 0H.792L0 9.108zm13.14 0h1.692l.396-5.418c.036-.54-.018-1.566-.018-1.566h.036s.288.684.576 1.35l2.16 4.536h1.494l2.16-4.554c.342-.702.576-1.332.576-1.332h.036s-.036 1.026-.018 1.566l.396 5.418h1.692L23.526 0h-1.908l-2.376 5.148c-.234.558-.504 1.224-.504 1.224h-.036s-.252-.684-.504-1.224L15.876 0h-1.944l-.792 9.108z"/></symbol><symbol viewBox="0 0 18 18" id="ic-plus" xmlns="http://www.w3.org/2000/svg"><path fill="#4A4A4A" fill-rule="evenodd" d="M10 8V.993A.997.997 0 0 0 9 0c-.556 0-1 .445-1 .993V8H.993A.997.997 0 0 0 0 9c0 .556.445 1 .993 1H8v7.007c0 .548.448.993 1 .993.556 0 1-.445 1-.993V10h7.007A.997.997 0 0 0 18 9c0-.556-.445-1-.993-1H10z"/></symbol><symbol viewBox="0 0 13 22" id="ic-question" xmlns="http://www.w3.org/2000/svg"><path fill="#4A4A4A" fill-rule="evenodd" d="M6.17 17.997a1.543 1.543 0 1 0 0 3.085 1.543 1.543 0 0 0 0-3.085M6.17 0C2.82 0 0 2.819 0 6.17a1.029 1.029 0 0 0 2.057.03v-.03c0-2.166 1.947-4.113 4.114-4.113 2.166 0 4.113 1.947 4.113 4.113.016 1.783-.949 2.703-2.217 3.857-.635.576-1.336 1.181-1.912 1.944-.576.763-1.013 1.741-1.013 2.893v.562a1.029 1.029 0 0 0 2.057.029v-.591c0-.662.2-1.133.594-1.656.395-.522 1-1.059 1.656-1.655 1.308-1.19 2.907-2.798 2.892-5.383v-.016C12.331 2.81 9.516 0 6.171 0"/></symbol><symbol viewBox="0 0 20 20" id="ic-redo" xmlns="http://www.w3.org/2000/svg"><path fill="#4A4A4A" d="M16.485 8.1a14.813 14.813 0 0 0-.243-.024c-2.398-.227-5.136-.015-7.702.963a12.75 12.75 0 0 0-2.026.978c-1.37.823-2.407 1.943-3.158 3.295a11.076 11.076 0 0 0-1.188 3.363 10.8 10.8 0 0 0-.148 1.106 5.5 5.5 0 0 0-.02.379 1 1 0 0 1-2 0c0-.39.051-1.034.202-1.849.25-1.35.7-2.7 1.405-3.97.916-1.647 2.193-3.027 3.879-4.038.74-.445 1.523-.82 2.342-1.133 2.897-1.104 5.925-1.338 8.602-1.086l.268.028-4.405-4.405A1 1 0 0 1 13.707.293l6 6a.997.997 0 0 1 0 1.414l-6 6a1 1 0 1 1-1.414-1.414L16.485 8.1z"/></symbol><symbol viewBox="0 0 20 18" id="ic-render" xmlns="http://www.w3.org/2000/svg"><g fill="#F2F2F2" fill-rule="evenodd"><circle cx="10" cy="10" r="3"/><path d="M4.8 3L5.629.929C5.834.416 6.453 0 6.997 0h6.006c.55 0 1.16.41 1.368.929L15.2 3h2.81C19.108 3 20 3.893 20 4.992v11.016c0 1.1-.898 1.992-1.99 1.992H1.99A1.992 1.992 0 0 1 0 16.008V4.992C0 3.892.898 3 1.99 3H4.8zM10 15a5 5 0 1 0 0-10 5 5 0 0 0 0 10z"/></g></symbol><symbol viewBox="0 0 14 20" id="ic-rur" xmlns="http://www.w3.org/2000/svg"><path fill="#4A4A4A" fill-rule="evenodd" d="M.232 9.244h2.02V.167h5.207c.968 0 1.85.109 2.647.327.796.218 1.48.55 2.048.996a4.62 4.62 0 0 1 1.338 1.693c.322.683.484 1.499.484 2.447 0 .949-.171 1.774-.513 2.476a4.962 4.962 0 0 1-1.394 1.75 5.94 5.94 0 0 1-2.077 1.038 9.393 9.393 0 0 1-2.59.342H4.528v2.874H9.11v1.878H4.528V20H2.252v-4.012H.232V14.11h2.02v-2.874H.232V9.244zm7.227 0c1.31 0 2.338-.299 3.088-.896.75-.598 1.124-1.504 1.124-2.718s-.375-2.096-1.124-2.646c-.75-.55-1.779-.825-3.088-.825H4.53v7.085h2.93z"/></symbol><symbol viewBox="0 0 20 20" id="ic-save" xmlns="http://www.w3.org/2000/svg"><g fill="#4A4A4A"><path d="M14.667 2L18 4.5V18H2V2h12.667zM1 0a1 1 0 0 0-1 1v18a1 1 0 0 0 1 1h18a1 1 0 0 0 1-1V4a1 1 0 0 0-.4-.8l-4-3A1 1 0 0 0 15 0H1z"/><path d="M14 2v6H6V2h8zM5 0a1 1 0 0 0-1 1v8a1 1 0 0 0 1 1h10a1 1 0 0 0 1-1V1a1 1 0 0 0-1-1H5z"/></g></symbol><symbol viewBox="0 0 20 20" id="ic-shape" xmlns="http://www.w3.org/2000/svg"><g fill="#4A4A4A"><path d="M17 4a1 1 0 1 0 0-2 1 1 0 0 0 0 2zm0 2a3 3 0 1 1 0-6 3 3 0 0 1 0 6zM3 4a1 1 0 1 0 0-2 1 1 0 0 0 0 2zm0 2a3 3 0 1 1 0-6 3 3 0 0 1 0 6zm14 12a1 1 0 1 0 0-2 1 1 0 0 0 0 2zm0 2a3 3 0 1 1 0-6 3 3 0 0 1 0 6zM3 18a1 1 0 1 0 0-2 1 1 0 0 0 0 2zm0 2a3 3 0 1 1 0-6 3 3 0 0 1 0 6z"/><path d="M5 4h11V2H5zm0 14h11v-2H5zM2 5v11h2V5zm14 0v11h2V5z"/></g></symbol><symbol viewBox="0 0 20 20" id="ic-undo" xmlns="http://www.w3.org/2000/svg"><path fill="#4A4A4A" d="M3.515 8.1l.243-.024c2.398-.227 5.136-.015 7.702.963a12.75 12.75 0 0 1 2.026.978c1.37.823 2.407 1.943 3.158 3.295a11.076 11.076 0 0 1 1.188 3.363c.074.403.122.775.148 1.106a5.5 5.5 0 0 1 .02.379 1 1 0 0 0 2 0c0-.39-.051-1.034-.202-1.849a13.05 13.05 0 0 0-1.405-3.97c-.916-1.647-2.193-3.027-3.879-4.038-.74-.445-1.523-.82-2.342-1.133C9.275 6.066 6.247 5.832 3.57 6.084l-.268.028 4.405-4.405A1 1 0 0 0 6.293.293l-6 6a.997.997 0 0 0 0 1.414l6 6a1 1 0 1 0 1.414-1.414L3.515 8.1z"/></symbol><symbol viewBox="0 0 17 20" id="ic-view-angle" xmlns="http://www.w3.org/2000/svg"><g fill="none" fill-rule="evenodd"><path fill="#979797" d="M4.536 2.8S2.768 6.338 2.768 9.944c0 3.605 1.768 7.256 1.768 7.256L15.143 10 4.536 2.8z"/><path fill="#4A4A4A" fill-rule="nonzero" d="M.463 1.844l14.143 9a1 1 0 1 0 1.074-1.688l-14.143-9A1 1 0 1 0 .463 1.844z"/><path fill="#4A4A4A" fill-rule="nonzero" d="M15.68 10.844l-14.143 9a1 1 0 1 1-1.074-1.688l14.143-9a1 1 0 0 1 1.074 1.688z"/></g></symbol><symbol viewBox="0 0 168 110" id="ic-wasd" xmlns="http://www.w3.org/2000/svg"><path fill="#FFF" fill-rule="evenodd" d="M64 0h40a6 6 0 0 1 6 6v40a6 6 0 0 1-6 6H64a6 6 0 0 1-6-6V6a6 6 0 0 1 6-6zm15.186 32.78h2.646l1.98-7.56c.216-.828.342-1.674.342-1.674h.054s.126.846.324 1.674l1.998 7.56h2.61L92.452 20h-2.394l-2.124 8.838c-.162.72-.198 1.35-.198 1.35H87.7s-.072-.612-.27-1.35L85.162 20h-1.944l-2.286 8.838c-.198.738-.27 1.35-.27 1.35h-.036s-.054-.63-.216-1.35L78.43 20H76l3.186 12.78zM64 110a6 6 0 0 1-6-6V64a6 6 0 0 1 6-6h40a6 6 0 0 1 6 6v40a6 6 0 0 1-6 6H64zm16-21.534c1.152 1.152 2.79 1.746 4.374 1.746 2.736 0 4.248-1.71 4.248-3.78 0-4.068-5.958-3.456-5.958-5.832 0-.882.774-1.458 1.944-1.458 1.008 0 2.106.486 2.808 1.116l1.026-1.89C87.434 77.45 86.03 77 84.698 77c-2.484 0-4.356 1.458-4.356 3.708 0 3.978 5.958 3.474 5.958 5.904 0 .864-.72 1.458-1.872 1.458-1.188 0-2.412-.666-3.168-1.35L80 88.466zM0 64a6 6 0 0 1 6-6h40a6 6 0 0 1 6 6v40a6 6 0 0 1-6 6H6a6 6 0 0 1-6-6V64zm20 26.78h2.376l1.08-3.276h4.482l1.098 3.276h2.376L26.93 78h-2.448L20 90.78zm4.032-5.166l1.152-3.42c.216-.72.504-1.98.504-1.98h.036s.288 1.26.504 1.98l1.134 3.42h-3.33zM168 64v40a6 6 0 0 1-6 6h-40a6 6 0 0 1-6-6V64a6 6 0 0 1 6-6h40a6 6 0 0 1 6 6zm-31 26.78h4.356c3.942 0 6.516-2.376 6.516-6.408S145.298 78 141.356 78H137v12.78zm2.322-1.998v-8.784h1.908c2.556 0 4.248 1.53 4.248 4.374 0 2.88-1.656 4.41-4.248 4.41h-1.908z"/></symbol><symbol viewBox="0 0 16 18" id="ic-window" xmlns="http://www.w3.org/2000/svg"><g fill="#4A4A4A"><path d="M14 2v13.938H2V2h12zM1 0a1 1 0 0 0-1 1v15.938a1 1 0 0 0 1 1h14a1 1 0 0 0 1-1V1a1 1 0 0 0-1-1H1z"/><path d="M1 9h14.5V8H1z"/><path d="M7.5 0v16.579h1V0z"/></g></symbol><symbol viewBox="0 0 20 20" id="ic-zone" xmlns="http://www.w3.org/2000/svg"><path fill="#4A4A4A" fill-rule="evenodd" d="M1 0h3v2H2v2H0V1a1 1 0 0 1 1-1zm0 20a1 1 0 0 1-1-1v-3h2v2h2v2H1zM20 1v3h-2V2h-2V0h3a1 1 0 0 1 1 1zm0 18a1 1 0 0 1-1 1h-3v-2h2v-2h2v3zM0 6h2v3H0V6zm18 0h2v3h-2V6zM0 11h2v3H0v-3zM14 0v2h-3V0h3zM9 0v2H6V0h3zM6 20v-2h3v2H6zm5 0v-2h3v2h-3zm7-9h2v3h-2v-3z"/></symbol><symbol viewBox="0 0 26 26" id="price-refresh" xmlns="http://www.w3.org/2000/svg"><g fill="none" fill-rule="evenodd"><circle cx="13" cy="13" r="13" fill="#FF8A55"/><path fill="#F2F2F2" fill-rule="nonzero" d="M9.592 16a4.604 4.604 0 0 0 8.654-.463 1 1 0 0 1 1.917.57A6.603 6.603 0 0 1 8 17.309V19a1 1 0 0 1-2 0v-4a1 1 0 0 1 1-1h4a1 1 0 1 1 0 2H9.591zm7.021-6.178a4.604 4.604 0 0 0-8.654.463 1 1 0 0 1-1.917-.57 6.603 6.603 0 0 1 12.163-1.201V6.822a1 1 0 1 1 2 0v4a1 1 0 0 1-1 1h-4a1 1 0 1 1 0-2h1.408z"/></g></symbol><symbol viewBox="0 0 28 20" id="render" xmlns="http://www.w3.org/2000/svg"><g fill="none" fill-rule="evenodd"><path fill="#E9ECFF" stroke="#4A4A4A" stroke-linejoin="round" stroke-width="2" d="M1 1h26v18H1z"/><path fill="#4A4A4A" d="M24 14.002L17 6l-6 6-3-3-4 5z"/></g></symbol><symbol viewBox="0 0 28 31" id="rotate-0" xmlns="http://www.w3.org/2000/svg"><g fill="none" fill-rule="evenodd"><path fill="currentColor" d="M14.179 19.168c2.646 0 3.5-2.268 3.5-5.124 0-2.842-.854-5.096-3.5-5.096-2.632 0-3.5 2.254-3.5 5.096 0 2.856.868 5.124 3.5 5.124zm0-1.274c-1.61 0-2.072-1.68-2.072-3.85 0-2.142.462-3.822 2.072-3.822 1.624 0 2.072 1.68 2.072 3.822 0 2.17-.448 3.85-2.072 3.85z"/><path d="M1.765 0H27v31H1.765z"/><path fill="currentColor" fill-rule="nonzero" d="M13.64 27.988C6.056 27.688 0 21.54 0 14 0 6.46 6.055.313 13.64.012A.793.793 0 0 1 13.777 0c.075 0 .15 0 .224.002L14.224 0c.046 0 .091.004.135.012C21.945.312 28 6.46 28 14c0 7.54-6.055 13.687-13.64 13.988a.793.793 0 0 1-.136.012c-.075 0-.15 0-.224-.002l-.224.002a.793.793 0 0 1-.135-.012zm.36-1.517c6.895-.118 12.448-5.656 12.448-12.471S20.895 1.647 14 1.53C7.105 1.646 1.552 7.184 1.552 14S7.105 26.353 14 26.47z"/></g></symbol><symbol viewBox="0 0 26 31" id="rotate-45" xmlns="http://www.w3.org/2000/svg"><g fill="none" fill-rule="evenodd"><path d="M.765 0H26v31H.765z"/><path fill="currentColor" d="M.765 16.354h4.788V19h1.358v-2.646h1.344v-1.162H6.911V9.116H5.343l-4.578 6.37v.868zm1.526-1.162v-.028l2.8-3.752c.266-.35.49-.826.49-.826h.028s-.056.532-.056.994v3.612H2.291zm7.224 2.604c.742.896 1.876 1.372 3.038 1.372 1.988 0 3.5-1.428 3.5-3.318 0-1.792-1.358-3.234-3.444-3.234-.476 0-1.05.168-1.288.294h-.028s.056-.196.084-.504l.224-2.086h3.794V9.116h-4.998l-.49 4.9.812.294a3.134 3.134 0 0 1 1.666-.49c1.274 0 2.24.84 2.24 2.03 0 1.204-.994 2.002-2.156 2.002-1.022 0-1.75-.546-2.17-1.064l-.784 1.008z"/><path fill="currentColor" fill-rule="nonzero" d="M21.222 13.161L19.53 11.47a.75.75 0 0 0-1.06 1.06l3 3a.748.748 0 0 0 1.06 0l3-3a.75.75 0 0 0-1.06-1.06l-1.742 1.742C22.319 5.985 16.329.25 9 .25a.75.75 0 0 0 0 1.5c6.484 0 11.79 5.037 12.222 11.411z"/></g></symbol><symbol viewBox="0 0 26 31" id="rotate-90" xmlns="http://www.w3.org/2000/svg"><g fill="none" fill-rule="evenodd"><path fill="currentColor" d="M1.643 18.762c.602.294 1.288.406 1.918.406 3.066 0 4.452-3.024 4.452-5.558 0-2.828-1.582-4.662-3.696-4.662-1.848 0-3.178 1.358-3.178 3.304 0 1.834 1.246 3.248 3.122 3.248.868 0 1.778-.364 2.184-.924h.028c-.21 1.638-1.148 3.318-2.968 3.318a3.392 3.392 0 0 1-1.414-.336l-.448 1.204zm2.898-4.424c-1.26 0-2.016-.882-2.016-2.086 0-1.162.672-2.03 1.806-2.03 1.26 0 2.24 1.442 2.24 2.73 0 .7-.91 1.386-2.03 1.386zm8.638 4.83c2.646 0 3.5-2.268 3.5-5.124 0-2.842-.854-5.096-3.5-5.096-2.632 0-3.5 2.254-3.5 5.096 0 2.856.868 5.124 3.5 5.124zm0-1.274c-1.61 0-2.072-1.68-2.072-3.85 0-2.142.462-3.822 2.072-3.822 1.624 0 2.072 1.68 2.072 3.822 0 2.17-.448 3.85-2.072 3.85z"/><path fill="currentColor" fill-rule="nonzero" d="M9.315 26.246l1.965-1.966a.75.75 0 0 0-1.06-1.06l-3 3a.748.748 0 0 0 0 1.06l3 3a.75.75 0 0 0 1.06-1.06l-1.492-1.492C17.015 27.319 22.75 21.329 22.75 14 22.75 6.406 16.594.25 9 .25a.75.75 0 0 0 0 1.5c6.765 0 12.25 5.485 12.25 12.25 0 6.66-5.315 12.08-11.935 12.246z"/><path d="M.765 0H26v31H.765z"/></g></symbol><symbol viewBox="0 0 40 40" id="shape-type-1" xmlns="http://www.w3.org/2000/svg"><g fill="none" fill-rule="evenodd" transform="translate(-10 -10)"><path fill="#E9ECFF" d="M10 10h40v40H10z"/><path stroke="#4A4A4A" stroke-width="2" d="M11 11h38v38H11z"/></g></symbol><symbol viewBox="0 0 40 20" id="shape-type-2" xmlns="http://www.w3.org/2000/svg"><g fill="none" fill-rule="evenodd" transform="translate(-70 -20)"><path fill="#E9ECFF" d="M70 20h40v20H70z"/><path stroke="#4A4A4A" stroke-width="2" d="M71 21h38v18H71z"/></g></symbol><symbol viewBox="0 0 40 40" id="shape-type-3" xmlns="http://www.w3.org/2000/svg"><g fill="none" fill-rule="evenodd" transform="translate(-10 -70)"><path fill="#E9ECFF" d="M50 70v22H32v18H10V70z"/><path stroke="#4A4A4A" stroke-width="2" d="M49 71H11v38h20V91h18V71z"/></g></symbol><symbol viewBox="0 0 40 40" id="shape-type-4" xmlns="http://www.w3.org/2000/svg"><g fill="none" fill-rule="evenodd" transform="translate(-70 -70)"><path fill="#E9ECFF" d="M70 110V88h18V70h22v40z"/><path stroke="#4A4A4A" stroke-width="2" d="M71 109h38V71H89v18H71v20z"/></g></symbol><symbol viewBox="0 0 40 40" id="shape-type-5" xmlns="http://www.w3.org/2000/svg"><g fill="none" fill-rule="evenodd" transform="rotate(180 25 85)"><path fill="#E9ECFF" d="M10 130h40v34h-8l-7 6H25l-7-6h-8v-8z"/><path stroke="#4A4A4A" stroke-width="2" d="M11 131v32h7.37l7 6h9.26l7-6H49v-32H11z"/></g></symbol><symbol viewBox="0 0 40 40" id="shape-type-6" xmlns="http://www.w3.org/2000/svg"><g fill="none" fill-rule="evenodd" transform="translate(-70 -130)"><path fill="#E9ECFF" d="M70 130h40v40H89l-19-18v-22z"/><path stroke="#4A4A4A" stroke-width="2" d="M71 131v20.57L89.398 169H109v-38H71z"/></g></symbol><symbol viewBox="0 0 15 24" id="simple-door" xmlns="http://www.w3.org/2000/svg"><g fill="none" fill-rule="evenodd" transform="translate(1 1)"><path fill="#E9ECFF" stroke="#4A4A4A" stroke-linejoin="round" stroke-width="2" d="M0 0h13v22H0z"/><rect width="1.846" height="5.538" x="3" y="8" fill="#4A4A4A" rx=".923"/></g></symbol><symbol viewBox="0 0 16 20" id="simple-window" xmlns="http://www.w3.org/2000/svg"><path fill="#E9ECFF" fill-rule="evenodd" stroke="#4A4A4A" stroke-linejoin="round" stroke-width="2" d="M1 1h14v18H1z"/></symbol><symbol viewBox="0 0 15 15" id="small-plus" xmlns="http://www.w3.org/2000/svg"><path fill="#6476FC" d="M6.003 6.253h-4.75a1.25 1.25 0 0 0 0 2.5h4.75v4.5a1.25 1.25 0 1 0 2.5 0v-4.5h4.75a1.25 1.25 0 1 0 0-2.5h-4.75v-5a1.25 1.25 0 1 0-2.5 0v5z"/></symbol><symbol viewBox="0 0 18 23" id="trash-bin" xmlns="http://www.w3.org/2000/svg"><g fill-rule="evenodd"><path fill-rule="nonzero" d="M3 20.006c0 .545.45.994 1.01.994h9.98a.995.995 0 0 0 1.01-.994V5H3v15.006zM17 5v15.006A2.995 2.995 0 0 1 13.99 23H4.01A3.004 3.004 0 0 1 1 20.006V5H0V3.5C0 2.672.662 2 1.504 2h14.992C17.326 2 18 2.666 18 3.5V5h-1z"/><path fill-rule="nonzero" d="M5 2.005v.99A1 1 0 0 0 6 4h6c.556 0 1-.446 1-1.005v-.99A1 1 0 0 0 12 1H6c-.556 0-1 .446-1 1.005zm-1 0C4 .898 4.887 0 6 0h6a2 2 0 0 1 2 2.005v.99A1.997 1.997 0 0 1 12 5H6a2 2 0 0 1-2-2.005v-.99z"/><rect width="2" height="14" x="4.5" y="6" rx="1"/><rect width="2" height="14" x="8" y="6" rx="1"/><rect width="2" height="14" x="11.5" y="6" rx="1"/></g></symbol><symbol viewBox="0 0 28 20" id="triple-window" xmlns="http://www.w3.org/2000/svg"><g fill="none" fill-rule="evenodd" stroke="#4A4A4A"><path fill="#E9ECFF" stroke-linejoin="round" stroke-width="2" d="M1 1h26v18H1z"/><path stroke-linecap="square" d="M9.5.5v19m9-19v19"/></g></symbol><symbol viewBox="0 0 14 9" id="up" xmlns="http://www.w3.org/2000/svg"><path fill="#979797" d="M7 2.537L1.76 8.65A1 1 0 1 1 .24 7.349L6.23.363a1 1 0 0 1 1.542 0l5.988 6.986a1 1 0 1 1-1.518 1.302L7 2.537z"/></symbol><symbol viewBox="0 0 24 24" id="vertical" xmlns="http://www.w3.org/2000/svg"><g fill-rule="evenodd" transform="rotate(90 12 12)"><path d="M0 2.005C0 .898.897 0 2.005 0h19.99C23.102 0 24 .897 24 2.005v19.99A2.005 2.005 0 0 1 21.995 24H2.005A2.005 2.005 0 0 1 0 21.995V2.005zm12-.159v20.308h8.148a2.006 2.006 0 0 0 2.006-2.003V3.85a2.006 2.006 0 0 0-2.006-2.003H12zm-3.692 8.3v3.709c0 .498.413.914.923.914.513 0 .923-.41.923-.914v-3.71a.923.923 0 0 0-.923-.914.917.917 0 0 0-.923.914z"/><rect width="1.846" height="5.538" x="13.846" y="9.231" rx=".923"/></g></symbol><symbol viewBox="0 0 26 20" id="vr" xmlns="http://www.w3.org/2000/svg"><path fill="#E9ECFF" fill-rule="evenodd" stroke="#4A4A4A" stroke-linejoin="round" stroke-width="2" d="M0 1c4.196 2 8.483 3 12.86 3C17.237 4 21.617 3 26 1v18c-4.27-2-8.603-3-13-3s-8.73 1-13 3V1z"/></symbol><symbol viewBox="0 0 26 26" id="wall-blue-arrow" xmlns="http://www.w3.org/2000/svg"><g fill="none" fill-rule="evenodd"><rect width="26" height="26" fill="#F2F2F2" rx="8"/><path fill="#6476FC" d="M9 13l7-6v12z"/><path stroke="#FFF" d="M8.232 13L16.5 5.913v14.174L8.232 13z"/></g></symbol><symbol viewBox="0 0 26 26" id="wall-blue-dot" xmlns="http://www.w3.org/2000/svg"><g fill="none" fill-rule="evenodd"><rect width="26" height="26" fill="#F2F2F2" rx="8"/><circle fill="#6476FC" cx="13" cy="13" r="7"/><circle cx="13" cy="13" r="7.5" stroke="#FFF"/></g></symbol><symbol viewBox="0 0 26 26" id="wall-red-arrow" xmlns="http://www.w3.org/2000/svg"><g fill="none" fill-rule="evenodd"><rect width="26" height="26" fill="#F2F2F2" rx="8"/><g transform="matrix(-1 0 0 1 27 0)"><path fill="#FF5D71" d="M10 13l7-6v12z"/><path stroke="#FFF" d="M9.232 13L17.5 5.913v14.174L9.232 13z"/></g></g></symbol><symbol viewBox="0 0 26 26" id="wall-red-dot" xmlns="http://www.w3.org/2000/svg"><g fill="none" fill-rule="evenodd"><rect width="26" height="26" fill="#F2F2F2" rx="8"/><circle fill="#FF5D71" cx="13" cy="13" r="7"/><circle cx="13" cy="13" r="7.5" stroke="#FFF"/></g></symbol><symbol viewBox="0 0 26 26" id="wall-redblue" xmlns="http://www.w3.org/2000/svg"><g fill="none" fill-rule="evenodd"><rect width="26" height="26" fill="#F2F2F2" rx="8"/><circle fill="#FF5D71" cx="10" cy="13" r="7"/><circle cx="10" cy="13" r="7.5" stroke="#FFF"/><circle fill="#6476FC" cx="16" cy="13" r="7"/><circle cx="16" cy="13" r="7.5" stroke="#FFF"/></g></symbol><symbol viewBox="0 0 26 26" id="wall-redblue-arrow" xmlns="http://www.w3.org/2000/svg"><g fill="none" fill-rule="evenodd"><rect width="26" height="26" fill="#F2F2F2" rx="8"/><path fill="#6476FC" d="M5 13l7-6v12z"/><path stroke="#FFF" d="M4.232 13L12.5 5.913v14.174L4.232 13z"/><g transform="matrix(-1 0 0 1 35 0)"><path fill="#FF5D71" d="M14 13l7-6v12z"/><path stroke="#FFF" d="M13.232 13L21.5 5.913v14.174L13.232 13z"/></g></g></symbol></svg>