<svg xmlns="http://www.w3.org/2000/svg" width="40" height="94" viewBox="0 0 40 94">
    <g fill="none" fill-rule="nonzero">
        <g fill="#F2F2F2">
            <path d="M5.6 34.2h3.6v-2.7H5.6v2.7zm-1.8-4.5H11V36H3.8v-6.3zM30.8 34.2h3.6v-2.7h-3.6v2.7zM29 29.7h7.2V36H29v-6.3z"/>
            <path d="M9.2 29.7V10.8H3.8v18.9h5.4zM3.8 9h5.4a1.8 1.8 0 0 1 1.8 1.8v20.7H2V10.8A1.8 1.8 0 0 1 3.8 9z"/>
            <path d="M11 29.7h18V3.6a1.8 1.8 0 0 0-1.8-1.8H12.8A1.8 1.8 0 0 0 11 3.6v26.1zM12.8 0h14.4a3.6 3.6 0 0 1 3.6 3.6v27.9H9.2V3.6A3.6 3.6 0 0 1 12.8 0z"/>
            <path d="M36.2 29.7V10.8h-5.4v18.9h5.4zM30.8 9h5.4a1.8 1.8 0 0 1 1.8 1.8v20.7h-9V10.8A1.8 1.8 0 0 1 30.8 9z"/>
            <path d="M29 29.7v-9a1.8 1.8 0 0 0-1.8-1.8H12.8a1.8 1.8 0 0 0-1.8 1.8v9h18zM12.8 17.1h14.4a3.6 3.6 0 0 1 3.6 3.6v10.8H9.2V20.7a3.6 3.6 0 0 1 3.6-3.6z"/>
        </g>
        <g fill="#F2F2F2">
            <path d="M3.8 59.8V67h26.015v-7.2H3.8zm0-1.8h26.015a1.8 1.8 0 0 1 1.8 1.8V67a1.8 1.8 0 0 1-1.8 1.8H3.8A1.8 1.8 0 0 1 2 67v-7.2A1.8 1.8 0 0 1 3.8 58zM17.262 79.6v12.6h3.579V79.6h-3.58zm-1.8-1.8h7.179V94h-7.18V77.8z"/>
            <path d="M36.1 69.93l-17.949 5.4v3.37h1.8v-2.03l17.949-5.4V62.5h-6.285v1.8H36.1z"/>
        </g>
        <path fill="#FFF" d="M0 47.5h40v-1H0z"/>
    </g>
</svg>
