<svg xmlns="http://www.w3.org/2000/svg" width="14" height="20" viewBox="0 0 14 20">
    <path fill="#4A4A4A" fill-rule="evenodd" d="M.232 9.244h2.02V.167h5.207c.968 0 1.85.109 2.647.327.796.218 1.48.55 2.048.996a4.62 4.62 0 0 1 1.338 1.693c.322.683.484 1.499.484 2.447 0 .949-.171 1.774-.513 2.476a4.962 4.962 0 0 1-1.394 1.75 5.94 5.94 0 0 1-2.077 1.038 9.393 9.393 0 0 1-2.59.342H4.528v2.874H9.11v1.878H4.528V20H2.252v-4.012H.232V14.11h2.02v-2.874H.232V9.244zm7.227 0c1.31 0 2.338-.299 3.088-.896.75-.598 1.124-1.504 1.124-2.718s-.375-2.096-1.124-2.646c-.75-.55-1.779-.825-3.088-.825H4.53v7.085h2.93z"/>
</svg>
