<svg xmlns="http://www.w3.org/2000/svg" width="46" height="44" viewBox="0 0 46 44">
    <g fill="#2699FA" fill-rule="evenodd">
        <path d="M45.8 28.567l.001-15.401c-.055.792-.254 1.553-.662 2.246a4.39 4.39 0 0 1-1.514 1.533l-15.716 9.478a9.735 9.735 0 0 1-10.059.005L2.18 17.001A4.406 4.406 0 0 1 .1 13.9 5.058 5.058 0 0 1 0 13.17L0 28.571c0 1.439.693 2.78 1.843 3.602l7.283 4.397 8.746 5.261a9.735 9.735 0 0 0 10.05 0l3.88-2.334.825-.499a.791.791 0 0 0 .34-.65v-7.95a.77.77 0 0 1 .378-.663l4.371-2.63a.271.271 0 0 1 .375.095.278.278 0 0 1 .039.142v7.959a.217.217 0 0 0 .33.185l5.575-3.375a4.43 4.43 0 0 0 1.765-3.544z"/>
        <path d="M11.911 20.397l6.134-3.713a9.495 9.495 0 0 1 9.843-.006l6.047 3.652 8.465-5.126c.392-.237.72-.57.953-.968.776-1.322.348-3.033-.955-3.82L27.062 1.155a7.988 7.988 0 0 0-8.281.004L3.4 10.471c-.392.237-.72.57-.953.968-.776 1.323-.348 3.033.955 3.82l8.508 5.138z"/>
    </g>
</svg>
